# xmcd
# 
# Track frame offsets:
#     150
#     24110
#     42169
#     61729
#     81218
#     99096
#     118113
#     137166
#     157741
#     177684
# 
# Disc length: 2627
# 
# Revision: 4
# Processed by: cddbd v1.5.2PL0 Copyright (c) Steve Scherf et al.
# Submitted via: fre:ac v1.0.31
# 
DISCID=720a410a
DTITLE=Richard Elliot - Ricochet
DYEAR=2003
DGENRE=Jazz
TTITLE0=Corner Pocket
TTITLE1=Ricochet
TTITLE2=Rendezvous
TTITLE3=Sweet Memories
TTITLE4=So Good
TTITLE5=Seven Sacred Pools
TTITLE6=Slam
TTITLE7=You Make Me Feel Brand New
TTITLE8=Sake For Two
TTITLE9=Sly
EXTD=YEAR: 2003 ID3G: 8
EXTT0=
EXTT1=
EXTT2=
EXTT3=
EXTT4=
EXTT5=
EXTT6=
EXTT7=
EXTT8=
EXTT9=
PLAYORDER=
